<mxfile host="app.diagrams.net" modified="2022-11-30T16:02:43.435Z" agent="5.0 (Windows NT 10.0; Win64; x64) AppleWebKit/537.36 (KHTML, like Gecko) Chrome/107.0.0.0 Safari/537.36" etag="n9RvxxZHSSjymq0dnh7n" version="20.6.0" type="github">
  <diagram id="prtHgNgQTEPvFCAcTncT" name="Page-1">
    <mxGraphModel dx="538" dy="767" grid="1" gridSize="10" guides="1" tooltips="1" connect="1" arrows="1" fold="1" page="1" pageScale="1" pageWidth="827" pageHeight="1169" math="0" shadow="0">
      <root>
        <mxCell id="0" />
        <mxCell id="1" parent="0" />
        <mxCell id="dNxyNK7c78bLwvsdeMH5-19" value="New HCP Expense" style="swimlane;html=1;childLayout=stackLayout;resizeParent=1;resizeParentMax=0;horizontal=0;startSize=30;horizontalStack=0;" parent="1" vertex="1">
          <mxGeometry x="100" y="120" width="480" height="750" as="geometry" />
        </mxCell>
        <mxCell id="dNxyNK7c78bLwvsdeMH5-20" value="Dynamics 365" style="swimlane;html=1;startSize=20;horizontal=0;" parent="dNxyNK7c78bLwvsdeMH5-19" vertex="1">
          <mxGeometry x="30" width="450" height="120" as="geometry" />
        </mxCell>
        <mxCell id="dNxyNK7c78bLwvsdeMH5-25" value="" style="edgeStyle=orthogonalEdgeStyle;rounded=0;orthogonalLoop=1;jettySize=auto;html=1;entryX=0;entryY=0.5;entryDx=0;entryDy=0;" parent="dNxyNK7c78bLwvsdeMH5-20" source="dNxyNK7c78bLwvsdeMH5-23" target="CIw5gSJTklbzx09EW9PK-27" edge="1">
          <mxGeometry relative="1" as="geometry">
            <mxPoint x="120" y="59.999999999999886" as="targetPoint" />
          </mxGeometry>
        </mxCell>
        <mxCell id="dNxyNK7c78bLwvsdeMH5-23" value="" style="ellipse;whiteSpace=wrap;html=1;fillColor=#d5e8d4;strokeColor=#82b366;" parent="dNxyNK7c78bLwvsdeMH5-20" vertex="1">
          <mxGeometry x="40" y="40" width="40" height="40" as="geometry" />
        </mxCell>
        <mxCell id="CIw5gSJTklbzx09EW9PK-27" value="Expense invoice registered in D365" style="rounded=1;whiteSpace=wrap;html=1;fontSize=10;" vertex="1" parent="dNxyNK7c78bLwvsdeMH5-20">
          <mxGeometry x="110" y="30" width="90" height="60" as="geometry" />
        </mxCell>
        <mxCell id="dNxyNK7c78bLwvsdeMH5-21" value="Veeva / SalesForce" style="swimlane;html=1;startSize=20;horizontal=0;" parent="dNxyNK7c78bLwvsdeMH5-19" vertex="1">
          <mxGeometry x="30" y="120" width="450" height="120" as="geometry" />
        </mxCell>
        <mxCell id="dNxyNK7c78bLwvsdeMH5-22" value="Informatica" style="swimlane;html=1;startSize=20;horizontal=0;" parent="dNxyNK7c78bLwvsdeMH5-19" vertex="1">
          <mxGeometry x="30" y="240" width="450" height="150" as="geometry" />
        </mxCell>
        <mxCell id="CIw5gSJTklbzx09EW9PK-29" value="&lt;span style=&quot;font-size: 8px;&quot;&gt;YES&lt;/span&gt;" style="edgeStyle=orthogonalEdgeStyle;rounded=0;orthogonalLoop=1;jettySize=auto;html=1;exitX=1;exitY=0.5;exitDx=0;exitDy=0;entryX=0;entryY=0.5;entryDx=0;entryDy=0;fontSize=10;" edge="1" parent="dNxyNK7c78bLwvsdeMH5-22" source="CIw5gSJTklbzx09EW9PK-23" target="CIw5gSJTklbzx09EW9PK-28">
          <mxGeometry relative="1" as="geometry" />
        </mxCell>
        <mxCell id="CIw5gSJTklbzx09EW9PK-23" value="&lt;font style=&quot;font-size: 8px;&quot;&gt;Missing &lt;br&gt;BN ID?&lt;/font&gt;" style="rhombus;whiteSpace=wrap;html=1;fontSize=10;" vertex="1" parent="dNxyNK7c78bLwvsdeMH5-22">
          <mxGeometry x="234" y="50" width="50" height="50" as="geometry" />
        </mxCell>
        <mxCell id="CIw5gSJTklbzx09EW9PK-21" style="edgeStyle=orthogonalEdgeStyle;rounded=0;orthogonalLoop=1;jettySize=auto;html=1;fontSize=10;entryX=0;entryY=0.5;entryDx=0;entryDy=0;exitX=1;exitY=0.5;exitDx=0;exitDy=0;" edge="1" parent="dNxyNK7c78bLwvsdeMH5-22" source="CIw5gSJTklbzx09EW9PK-26" target="CIw5gSJTklbzx09EW9PK-23">
          <mxGeometry relative="1" as="geometry">
            <mxPoint x="215" y="60.0344827586207" as="sourcePoint" />
            <mxPoint x="330" y="20" as="targetPoint" />
          </mxGeometry>
        </mxCell>
        <mxCell id="CIw5gSJTklbzx09EW9PK-26" value="Daily scheduled task to retrieve new expenses" style="rounded=1;whiteSpace=wrap;html=1;fontSize=10;" vertex="1" parent="dNxyNK7c78bLwvsdeMH5-22">
          <mxGeometry x="107.5" y="50" width="95" height="50" as="geometry" />
        </mxCell>
        <mxCell id="CIw5gSJTklbzx09EW9PK-28" value="Send error email to&amp;nbsp;" style="rounded=1;whiteSpace=wrap;html=1;fontSize=10;" vertex="1" parent="dNxyNK7c78bLwvsdeMH5-22">
          <mxGeometry x="340" y="10" width="70" height="50" as="geometry" />
        </mxCell>
        <mxCell id="CIw5gSJTklbzx09EW9PK-5" value="Data Storage (ADLS)" style="swimlane;html=1;startSize=20;horizontal=0;" vertex="1" parent="dNxyNK7c78bLwvsdeMH5-19">
          <mxGeometry x="30" y="390" width="450" height="120" as="geometry" />
        </mxCell>
        <mxCell id="CIw5gSJTklbzx09EW9PK-22" value="" style="shape=cylinder3;whiteSpace=wrap;html=1;boundedLbl=1;backgroundOutline=1;size=15;fontSize=10;" vertex="1" parent="CIw5gSJTklbzx09EW9PK-5">
          <mxGeometry x="320" y="20" width="60" height="80" as="geometry" />
        </mxCell>
        <mxCell id="CIw5gSJTklbzx09EW9PK-9" value="Acubiz" style="swimlane;html=1;startSize=20;horizontal=0;" vertex="1" parent="dNxyNK7c78bLwvsdeMH5-19">
          <mxGeometry x="30" y="510" width="450" height="120" as="geometry" />
        </mxCell>
        <mxCell id="CIw5gSJTklbzx09EW9PK-13" value="MediSpend" style="swimlane;html=1;startSize=20;horizontal=0;" vertex="1" parent="dNxyNK7c78bLwvsdeMH5-19">
          <mxGeometry x="30" y="630" width="450" height="120" as="geometry" />
        </mxCell>
        <mxCell id="CIw5gSJTklbzx09EW9PK-17" style="edgeStyle=orthogonalEdgeStyle;rounded=0;orthogonalLoop=1;jettySize=auto;html=1;entryX=0.5;entryY=0;entryDx=0;entryDy=0;" edge="1" parent="dNxyNK7c78bLwvsdeMH5-19" source="CIw5gSJTklbzx09EW9PK-27" target="CIw5gSJTklbzx09EW9PK-26">
          <mxGeometry relative="1" as="geometry">
            <mxPoint x="195" y="89.99999999999989" as="sourcePoint" />
            <mxPoint x="195" y="270" as="targetPoint" />
          </mxGeometry>
        </mxCell>
      </root>
    </mxGraphModel>
  </diagram>
</mxfile>
